<svg version="1.2" xmlns="http://www.w3.org/2000/svg" viewBox="0 0 800 397" width="800" height="397"><defs><clipPath clipPathUnits="userSpaceOnUse" id="cp1"><path d="m172.66 273.3v114.38h-79.61v-114.38z"/></clipPath><clipPath clipPathUnits="userSpaceOnUse" id="cp2"><path d="m264.07 84.39v79.59h-253.3v-79.59z"/></clipPath><clipPath clipPathUnits="userSpaceOnUse" id="cp3"><path d="m212.95 9.41v39.5h-60.43v-39.5z"/></clipPath></defs><style>.a{fill:#1a1a1a}.b{fill:#e07b17}.c{fill:none;stroke:#000;stroke-width:1.6}</style><path class="a" d="m194.8 111.6l-96.3-0.7 0.6-1.9 3.2-11.6 5.3-18.7 2.9-10.3 3.5-12.7h115.4z"/><g clip-path="url(#cp1)"><path class="a" d="m129.3 274.1l43 8.8-78.8 104.7z"/></g><path class="a" d="m247.4 183.2l-50.6 67.2-57.8-7.1 3.2-10.1-6.1-4.3-6.1-4.1-15.4-10.6-6.1-4.2-31.7-21.7 12.1-43 88.3-5.2-11.2 18.1 9.5 2.9 8.4 2.6 17 5.2 8.2 2.5z"/><g clip-path="url(#cp2)"><path class="b" d="m83.5 138.6l-72.7 4.2 87.8-58.1-5.7 20.2-16.1 12.9 12.4 0.1h7.4l93.9 0.7h8.2l65.4 0.5-56.5 44.5-16.6-5.1 39.1-28.5-39.9 2.3-8.5 0.5-90.8 5.3z"/></g><path class="b" d="m260.2 265.2l-117.8 69.1-0.2 0.1 0.4-0.4 56.7-52.8-14.6-3-7.7-1.5-45.6-9.4-6.9-1.4-63.1-12.9 47.2-34.4 15.6 10.7-21.1 16.7 26.7 3.2 7.1 0.9 55 6.7 8.1 1z"/><g clip-path="url(#cp3)"><path class="b" d="m163.2 48.6h-10.2l59.1-39.1z"/></g><path  d="m337.3 197.6h-46.2v-57.7h46.2q3.2 0 5.8 1.5 2.6 1.6 4.2 4.2 1.5 2.6 1.5 5.8v34.6q0 3.2-1.5 5.9-1.6 2.6-4.2 4.2-2.6 1.5-5.8 1.5zm-34.7-46.2v34.6h34.7v-34.6z"/><path  d="m419.6 139.9v11.5h-46.2v11.6h46.2v11.5h-46.2v11.5h46.2v11.6h-46.2q-3.2 0-5.9-1.5-2.6-1.6-4.1-4.2-1.6-2.7-1.6-5.9v-34.6q0-3.2 1.6-5.8 1.5-2.6 4.1-4.2 2.7-1.5 5.9-1.5z"/><path  d="m490.3 197.6h-46.2q-3.2 0-5.8-1.5-2.6-1.6-4.2-4.2-1.5-2.7-1.5-5.9v-46.1h11.5v46.1h46.2z"/><path  d="m514.9 139.9h34.6q3.2 0 5.8 1.5 2.7 1.6 4.2 4.2 1.6 2.6 1.6 5.8v46.2h-11.6v-46.2h-11.5v46.2h-11.6v-46.2h-11.5v46.2h-11.6v-46.2q0-3.2 1.6-5.8 1.5-2.6 4.2-4.2 2.6-1.5 5.8-1.5z"/><path  d="m620.3 197.6h-34.7q-3.2 0-5.8-1.5-2.6-1.6-4.2-4.2-1.5-2.7-1.5-5.9v-34.6q0-3.2 1.5-5.8 1.6-2.6 4.2-4.2 2.6-1.5 5.8-1.5h34.7q3.2 0 5.8 1.5 2.6 1.6 4.2 4.2 1.5 2.6 1.5 5.8v34.6q0 3.2-1.5 5.8-1.6 2.6-4.2 4.2-2.6 1.6-5.8 1.6zm-34.7-46.2v34.6h34.7v-34.6z"/><path  d="m656.4 197.6h-11.6v-52q0-2.3 1.7-4 1.7-1.7 4.1-1.7 2.4 0 4.1 1.7l36.3 36.3v-38h11.6v51.9q0 2.4-1.7 4.1-1.7 1.7-4.1 1.7-2.4 0-4.1-1.7l-36.3-36.3z"/><path  d="m773.3 139.9v11.5h-23.1v46.2h-11.5v-46.2h-23.1v-11.5z"/><path  d="m337.3 258.3h-34.7q-3.2 0-5.8-1.6-2.6-1.5-4.2-4.2-1.5-2.6-1.5-5.8v-34.6q0-3.2 1.5-5.8 1.6-2.7 4.2-4.2 2.6-1.6 5.8-1.6h34.7q3.2 0 5.8 1.6 2.6 1.5 4.2 4.2 1.5 2.6 1.5 5.8v34.6q0 3.1-1.5 5.7-1.6 2.7-4.2 4.3-2.6 1.6-5.8 1.6zm-34.7-46.2v34.6h34.7v-34.6zm23.1 23.1h-11.6v-11.6h11.6z"/><path  d="m396.5 212.1v34.6h23.1v11.6h-57.8v-11.6h23.1v-34.6h-23.1v-11.6h23.1q3.2 0 5.8 1.6 2.7 1.5 4.2 4.2 1.6 2.6 1.6 5.8z"/><path  d="m478.8 223.6v-23.1h11.5v57.8h-11.5v-23.1h-34.7q-3.2 0-5.8-1.6-2.6-1.5-4.2-4.2-1.5-2.6-1.5-5.8v-23.1h11.5v23.1z"/><path fill-rule="evenodd" class="c" d="m288.2 262.1l499.1-1"/><path  d="m297.5 268.7q3.7 0 5.8 2.7 2.1 2.8 2.1 7.9 0 5.2-2.1 8-2.1 2.7-5.8 2.7-3.8 0-6-2.7-2.1-2.8-2.1-7.9 0-3.5 1-5.9 1-2.4 2.8-3.6 1.8-1.2 4.3-1.2zm0 17.9q1.8 0 2.7-1.7 0.8-1.6 0.8-5.5 0-4-0.8-5.7-0.9-1.8-2.8-1.8-1.8 0-2.7 1.8-0.9 1.7-0.9 5.7 0 3.8 0.9 5.5 0.9 1.7 2.8 1.7z"/><path  d="m323.8 268.7q1.9 0 3.6 0.7 1.6 0.7 2.6 2 1.1 1.4 1.2 3.2h-3.8q-0.4-1.3-1.3-1.9-0.9-0.7-2.3-0.7-1.5 0-2.4 0.8-1 0.9-1.5 2.4-0.4 1.5-0.2 3.5 0.5-0.7 1.2-1.1 0.7-0.5 1.6-0.8 1-0.3 1.9-0.3 2.1 0 3.7 0.8 1.6 0.8 2.5 2.3 0.9 1.4 0.9 3.3 0 2.1-1 3.7-1 1.5-2.8 2.5-1.8 0.9-4.1 0.9-2.7 0-4.6-1.3-1.9-1.2-2.9-3.6-1.1-2.3-1.1-5.4 0-3.4 1.1-5.9 1-2.5 3-3.8 1.9-1.3 4.7-1.3zm-0.3 11q-0.9 0-1.8 0.4-0.8 0.4-1.3 1-0.5 0.6-0.5 1.2-0.1 1.4 0.4 2.4 0.5 1 1.3 1.6 0.8 0.5 1.8 0.5 1 0 1.9-0.5 0.8-0.4 1.2-1.3 0.5-0.8 0.5-1.9 0-1.1-0.4-1.9-0.5-0.8-1.3-1.1-0.8-0.4-1.8-0.4z"/><path  d="m341.2 275.3q0-2.2 1.1-3.7 1-1.5 2.8-2.2 1.8-0.7 4-0.7 2.3 0 4.2 0.5 1.8 0.7 2.8 1.9 1.1 1.2 1.1 3.1 0 1.6-0.9 2.7-0.9 1.2-2.9 1.9 1.1 0.3 2.1 0.9 1 0.7 1.6 1.7 0.6 1 0.6 2.4 0 1.5-0.7 2.7-0.7 1.2-1.9 1.9-1.2 0.8-2.7 1.2-1.6 0.4-3.4 0.4-2.5 0-4.2-0.8-1.8-0.8-2.7-2.3-1-1.5-1-3.6h4q0.3 1.7 1.4 2.5 1.1 0.8 2.6 0.8 1.2 0 2.2-0.4 0.9-0.3 1.4-1 0.5-0.7 0.5-1.5 0-0.9-0.5-1.6-0.5-0.6-1.4-1-0.9-0.3-2.1-0.4h-2v-3.4l1.8-0.1q1.1 0 1.9-0.4 0.9-0.4 1.4-1 0.4-0.6 0.4-1.4 0-0.8-0.5-1.3-0.4-0.6-1.3-0.9-0.8-0.3-1.9-0.3-1 0-1.8 0.3-0.8 0.3-1.4 1.1-0.5 0.8-0.6 2z"/><path  d="m366.3 290.2l7.3-21.3h2.9l-7.2 21.3z"/><path  d="m389 289.7v-15.6h-3.7v-2.3q1.8 0 2.8-0.4 1.2-0.3 1.7-0.9 0.6-0.7 0.6-1.6h2.8v20.8z"/><path  d="m413 268.7q2.2 0 3.9 0.6 1.7 0.7 2.6 2 1 1.3 1 3.2 0 1.6-0.9 2.7-0.8 1.1-2.1 1.7 0.9 0.2 1.8 1 1 0.7 1.5 1.8 0.6 1 0.6 2.2 0 1.9-1 3.2-1.1 1.4-2.9 2.2-1.9 0.7-4.5 0.7-2.5 0-4.3-0.7-1.9-0.8-3-2.2-1-1.3-1-3.2 0-1.2 0.6-2.2 0.6-1.1 1.5-1.8 0.9-0.8 1.8-1-1.3-0.6-2.1-1.7-0.9-1.1-0.9-2.7 0-1.9 1-3.2 0.9-1.3 2.6-2 1.7-0.6 3.8-0.6zm0 8.6q1.5 0 2.4-0.8 0.9-0.7 0.9-2.1 0-1.3-0.9-2.1-0.9-0.8-2.4-0.8-1.4 0-2.3 0.8-0.9 0.8-0.9 2.1 0 1.4 0.9 2.1 0.9 0.8 2.3 0.8zm0 9.5q1.9 0 2.9-0.8 1.1-0.8 1.1-2.2 0-0.9-0.5-1.6-0.5-0.7-1.4-1.1-0.8-0.4-2.1-0.4-1.2 0-2 0.4-0.9 0.4-1.4 1.1-0.5 0.7-0.5 1.6 0 1.4 1.1 2.2 1 0.8 2.8 0.8z"/><path  d="m431 268.9h15.5v3.5q-1 1.2-2 2.9-1 1.7-1.9 3.6-0.9 1.9-1.6 3.8-0.8 2-1.2 3.8-0.4 1.8-0.5 3.2h-4.5q0.1-1.3 0.6-3.2 0.4-1.9 1.3-4.3 0.9-2.3 2.2-4.8 1.4-2.6 3.2-5h-11.1z"/><path  d="m459.8 289.7v-15.6h-3.7v-2.3q1.8 0 2.8-0.4 1.2-0.3 1.7-0.9 0.6-0.7 0.6-1.6h2.8v20.8z"/><path  d="m483.8 280.8v3h-7.9v-3z"/><path  d="m501.9 268.7q3.7 0 5.8 2.7 2.2 2.8 2.2 7.9 0 5.2-2.1 8-2.2 2.7-5.9 2.7-3.8 0-5.9-2.7-2.1-2.8-2.1-7.9 0-3.5 0.9-5.9 1-2.4 2.8-3.6 1.8-1.2 4.3-1.2zm0 17.9q1.8 0 2.7-1.7 0.8-1.6 0.8-5.5 0-4-0.8-5.7-0.9-1.8-2.7-1.8-1.9 0-2.8 1.8-0.9 1.7-0.9 5.7 0 3.8 0.9 5.5 0.9 1.7 2.8 1.7z"/><path  d="m519.6 275.3q0-2.2 1-3.7 1.1-1.5 2.9-2.2 1.8-0.7 4-0.7 2.3 0 4.1 0.5 1.8 0.7 2.9 1.9 1 1.2 1 3.1 0 1.6-0.9 2.7-0.9 1.2-2.9 1.9 1.2 0.3 2.2 0.9 0.9 0.7 1.5 1.7 0.6 1 0.6 2.4 0 1.5-0.6 2.7-0.7 1.2-1.9 1.9-1.2 0.8-2.8 1.2-1.5 0.4-3.3 0.4-2.5 0-4.3-0.8-1.7-0.8-2.7-2.3-0.9-1.5-0.9-3.6h4q0.3 1.7 1.4 2.5 1 0.8 2.5 0.8 1.3 0 2.2-0.4 1-0.3 1.5-1 0.5-0.7 0.5-1.5 0-0.9-0.5-1.6-0.6-0.6-1.5-1-0.9-0.3-2-0.4h-2v-3.4l1.8-0.1q1.1 0 1.9-0.4 0.9-0.4 1.3-1 0.5-0.6 0.5-1.4 0-0.8-0.5-1.3-0.5-0.6-1.3-0.9-0.8-0.3-1.9-0.3-1 0-1.8 0.3-0.9 0.3-1.4 1.1-0.5 0.8-0.6 2z"/><path  d="m555.1 268.9h4.1v12.7h3.2v3.5h-3.2v4.6h-4v-4.6h-9.6v-3.4zm-5.6 12.6h5.7v-7.6z"/></svg>